<?xml version="1.0" ?><svg style="enable-background:new 0 0 48 48;" version="1.1" viewBox="0 0 48 48" xml:space="preserve" xmlns="http://www.w3.org/2000/svg" xmlns:xlink="http://www.w3.org/1999/xlink"><g id="Icons"><g><linearGradient gradientUnits="userSpaceOnUse" id="SVGID_1_" x1="24.00034" x2="24.00034" y1="36.42997" y2="10.77011"><stop offset="0.09694" style="stop-color:#FFD879"/><stop offset="0.15387" style="stop-color:#FCCB76"/><stop offset="0.25828" style="stop-color:#F5AA6C"/><stop offset="0.39756" style="stop-color:#E9755E"/><stop offset="0.44898" style="stop-color:#E45F58"/><stop offset="0.67857" style="stop-color:#D22A9C"/><stop offset="1" style="stop-color:#6968DF"/></linearGradient><path d="M34.30036,23.97381v9.64996c0,0.54004-0.44,0.98004-0.97998,0.98004h-7.24005v-4.92004    c0-0.26996-0.04999-0.52997-0.14996-0.76996c-0.10004-0.26001-0.26001-0.5-0.46002-0.70001    c-0.37-0.38-0.89001-0.60999-1.46997-0.60999c-0.88,0-1.63,0.53998-1.92999,1.31c-0.10004,0.23999-0.15002,0.5-0.15002,0.76996    v4.92004h-7.23999c-0.54004,0-0.98004-0.44-0.98004-0.98004v-9.64996c0-0.44,0.17004-0.85999,0.48004-1.16003l9.13001-9.13    c0.38-0.37994,1-0.37994,1.38,0l9.13,9.13C34.13038,23.11383,34.30036,23.53381,34.30036,23.97381z" style="fill:url(#SVGID_1_);"/><path d="    M22.07,28.90911c0.3-0.77,1.05-1.31,1.93-1.31c0.58,0,1.1,0.23,1.47,0.61c0.2,0.2,0.36,0.44,0.46,0.7" style="fill:none;stroke:#303030;stroke-width:0.7;stroke-linecap:round;stroke-linejoin:round;stroke-miterlimit:10;"/><path d="    M34.3,23.9731v9.64804c0,0.54165-0.43909,0.98074-0.98075,0.98074H26.08v-4.92276c0-0.27-0.05-0.53-0.15-0.77    c-0.1-0.26-0.26-0.5-0.46-0.7c-0.37-0.38-0.89-0.61-1.47-0.61c-0.88,0-1.63,0.54-1.93,1.31c-0.1,0.24-0.15,0.5-0.15,0.77v4.92276    h-7.23925c-0.54165,0-0.98075-0.43909-0.98075-0.98074V23.9731c0-0.43618,0.17327-0.85449,0.4817-1.16291l9.12481-9.12481    c0.38301-0.38301,1.00398-0.38301,1.38699,0l9.12481,9.12481C34.12673,23.11861,34.3,23.53692,34.3,23.9731z" style="fill:none;stroke:#303030;stroke-width:0.7;stroke-linecap:round;stroke-linejoin:round;stroke-miterlimit:10;"/><line style="fill:none;stroke:#303030;stroke-width:0.7;stroke-linecap:round;stroke-linejoin:round;stroke-miterlimit:10;" x1="15.35756" x2="15.35756" y1="25.50596" y2="29.2073"/><line style="fill:none;stroke:#303030;stroke-width:0.7;stroke-linecap:round;stroke-linejoin:round;stroke-miterlimit:10;" x1="15.35756" x2="15.35756" y1="30.86652" y2="31.7555"/></g></g></svg>