<?xml version="1.0" encoding="utf-8"?>
<!-- Generated by IcoMoon.io -->
<!DOCTYPE svg PUBLIC "-//W3C//DTD SVG 1.1//EN" "http://www.w3.org/Graphics/SVG/1.1/DTD/svg11.dtd">
<svg version="1.1" xmlns="http://www.w3.org/2000/svg" xmlns:xlink="http://www.w3.org/1999/xlink" width="32" height="32" viewBox="0 0 32 32">
<path fill="#444444" d="M32 1.778c0-0.978-0.8-1.778-1.778-1.778h-28.444c-0.978 0-1.778 0.8-1.778 1.778v28.444c0 0.978 0.8 1.778 1.778 1.778h28.444c0.978 0 1.778-0.8 1.778-1.778v-28.444zM30.222 7.111h-28.444v-5.333h28.444v5.333zM30.222 30.222h-28.444v-21.333h28.444v21.333z"></path>
<path fill="#444444" d="M9.156 22.933h-5.6v-6.222h5.689v6.222zM4.267 22.222h4.089v-4.8h-4.089v4.8z"></path>
<path fill="#444444" d="M13.333 20.444h-4.444v-0.889h4.444v0.444z"></path>
<path fill="#444444" d="M18.933 22.933h-5.6v-6.222h5.689v6.222zM14.044 22.222h4.089v-4.8h-4.089v4.8z"></path>
<path fill="#444444" d="M16.889 16.889h-0.889v-3.556h0.889v1.778z"></path>
<path fill="#444444" d="M23.111 14.222h-7.111v-0.889h7.111v0.444z"></path>
<path fill="#444444" d="M28.444 17.067h-5.689v-6.222h5.689v6.222zM23.556 16.267h4.089v-4.8h-4.089v4.8z"></path>
<path fill="#444444" d="M16.889 25.778h-0.889v-3.556h0.889v1.778z"></path>
<path fill="#444444" d="M23.111 25.778h-6.222v-0.889h6.222v0.444z"></path>
<path fill="#444444" d="M28.444 27.911h-5.689v-6.222h5.689v6.222zM23.556 27.2h4.089v-4.8h-4.089v4.8z"></path>
</svg>
